<svg id="SvgjsSvg1013" width="288" height="288" xmlns="http://www.w3.org/2000/svg" version="1.1" xmlns:xlink="http://www.w3.org/1999/xlink" xmlns:svgjs="http://svgjs.com/svgjs"><defs id="SvgjsDefs1014"></defs><g id="SvgjsG1015"><svg xmlns="http://www.w3.org/2000/svg" width="288" height="288" viewBox="0 0 24 24"><g transform="translate(-672 -168)" fill="#000000" class="color000 svgShape"><path fill="none" d="M0,0H24V24H0Z" data-name="Path 3648" transform="translate(672 168)"></path><path fill="#000000" d="M1.8,19.2A1.8,1.8,0,0,1,0,17.4V9A1.8,1.8,0,0,1,1.8,7.2H8.1V5.55a5.55,5.55,0,0,1,11.1,0v2.4a1.05,1.05,0,0,1-2.1,0V5.55a3.45,3.45,0,1,0-6.9,0V7.2h2.4A1.8,1.8,0,0,1,14.4,9v8.4a1.8,1.8,0,0,1-1.8,1.8Zm0-1.8H12.6V9H1.8Z" data-name="Path 3556" transform="translate(674.4 170.4)" class="color525863 svgShape"></path></g></svg></g></svg>